<?xml version="1.0" encoding="utf-8"?>
<!-- Generator: Adobe Illustrator 18.1.1, SVG Export Plug-In . SVG Version: 6.00 Build 0)  -->
<svg version="1.1" id="Layer_1" xmlns="http://www.w3.org/2000/svg" xmlns:xlink="http://www.w3.org/1999/xlink" x="0px" y="0px"
	 viewBox="0 0 566.5 245.9" enable-background="new 0 0 566.5 245.9" xml:space="preserve">
<g>
	<g>
		<g>
			<g>
				<g>
					<path fill="#23A9E1" d="M460,132.7c-97.3-94.7-256-94.8-353.4-0.2C90.1,120,73.5,107.5,56.9,95.1
						c124.8-121.2,328.2-121.2,453,0.2C493.2,107.8,476.6,120.2,460,132.7z"/>
					<path fill="#0F76BC" d="M320.3,64.2c-75.8-10.9-155.9,11.9-214,68.6c-16.7-12.5-33.3-25-50-37.4c52.3-51,118.4-80.6,186.8-88.9
						C275.1,21.9,301.1,42,320.3,64.2z"/>
				</g>
				<g>
					<path fill="#272661" d="M95.7,136.3c-14.4,15.1-27.4,32.4-38.5,51.8c-4.6-12-8.1-24.8-10.6-38c-13.8,5.3-27.8,12-41.9,20.1
						c13.7-23.9,29.6-45.2,47.4-63.8C66.7,116.3,81.2,126.3,95.7,136.3z"/>
					<path fill="#263E90" d="M51.8,106.8c14.3,9.8,28.6,19.6,43,29.4c-14.4,15.1-27.3,32.3-38.3,51.7
						C50.3,162.7,48.5,135.2,51.8,106.8z"/>
				</g>
				<g>
					<path fill="#272661" d="M470.8,136.4c14.4,15.1,27.4,32.4,38.5,51.8c4.6-12,8.1-24.8,10.6-38c13.8,5.3,27.8,12,41.9,20.1
						c-13.7-23.9-29.6-45.2-47.4-63.9C499.8,116.4,485.3,126.4,470.8,136.4z"/>
					<path fill="#263E90" d="M514.1,106.3c-14.3,9.8-28.6,19.7-42.9,29.5c14.5,15.2,27.5,32.5,38.7,52.1
						C516.1,162.5,517.7,134.8,514.1,106.3z"/>
				</g>
			</g>
			<g>
				<path fill="#FFFFFF" d="M104.7,97.3c4.2,5.2,8.4,10.3,12.8,15.4c-1.8,1.5-3.6,3-5.4,4.5c-12.6-8.5-25.5-16.7-38.6-24.7
					c1.8-1.6,3.6-3.2,5.5-4.8c8.4,5.7,16.6,11.6,24.8,17.5c-6.5-7.3-13-14.7-19.3-22.1c1.8-1.5,3.6-2.9,5.5-4.4
					c8,6.1,16,12.2,23.8,18.5c-6.1-7.5-12.2-15.1-18.1-22.8c1.9-1.4,3.9-2.8,5.8-4.2c8.2,11.9,16.7,23.7,25.5,35.2
					c-1.9,1.4-3.7,2.8-5.5,4.2C115.8,105.5,110.3,101.4,104.7,97.3z"/>
				<path fill="#FFFFFF" d="M116.2,69.1c2.3,2.7,4.7,5.5,7,8.2c4.7-3,9.4-5.9,14.2-8.6c1.4,1.9,2.8,3.8,4.2,5.6
					c-4.7,2.7-9.3,5.5-13.8,8.4c2.3,2.7,4.7,5.5,7,8.2c4.3-2.8,8.7-5.5,13.2-8c1.5,2,2.9,4,4.4,5.9c-6,3.4-11.9,7.1-17.6,11
					C125,89,115.3,78.1,105.6,67.3c6.9-4.7,13.9-9.1,21.1-13.1c1.5,2,2.9,4,4.4,5.9C126,63,121.1,66,116.2,69.1z"/>
				<path fill="#FFFFFF" d="M157,78c4.5-2.4,9.1-4.6,13.8-6.7c1.2,2.1,2.4,4.2,3.7,6.3c-6.2,2.8-12.4,5.9-18.4,9.2
					c-8.3-11.7-16.7-23.4-25-35.1c2-1.1,4.1-2.2,6.1-3.3C143.7,58.3,150.4,68.1,157,78z"/>
				<path fill="#FFFFFF" d="M180.1,67.3c4.7-1.9,9.5-3.7,14.2-5.3c1,2.2,1.9,4.4,2.9,6.6c-6.4,2.2-12.8,4.6-19.1,7.3
					c-6.9-12.4-13.8-24.8-20.6-37.2c7.5-3.2,15.1-6.1,22.8-8.8c1,2.2,1.9,4.4,2.9,6.6c-5.4,1.8-10.7,3.8-16,6
					C171.6,50.8,175.9,59.1,180.1,67.3z"/>
				<path fill="#FFFFFF" d="M208.5,21.9c4.1,13.3,8.2,26.7,12.3,40c-6.6,1.6-13.1,3.4-19.6,5.5c-5.4-13-10.7-25.9-16.1-38.9
					C192.8,25.9,200.6,23.7,208.5,21.9z M204.6,30.2c-3.5,0.9-7,1.9-10.4,2.9c3.3,8.6,6.6,17.2,9.9,25.8c3.1-0.9,6.2-1.8,9.3-2.6
					C210.4,47.6,207.5,38.9,204.6,30.2z"/>
				<path fill="#FFFFFF" d="M230.3,59.7c-1.9,0.4-3.7,0.8-5.6,1.2c-3.8-13.4-7.7-26.8-11.5-40.2c2.2-0.5,4.4-1,6.6-1.4
					c4.2,6.9,8.1,13.9,11.9,21c0.4-7.8,1.1-15.6,2-23.4c2.1-0.3,4.2-0.6,6.3-0.9c2.4,13.6,4.7,27.3,7.1,41c-1.8,0.2-3.5,0.5-5.3,0.8
					c-1.1-5.7-2.3-11.4-3.4-17.1c-0.3,5.9-0.6,11.8-0.7,17.7c-1.1,0.2-2.2,0.4-3.3,0.6c-2.7-5.4-5.6-10.8-8.6-16.1
					C227.4,48.4,228.9,54.1,230.3,59.7z"/>
				<path fill="#FFFFFF" d="M252.6,21.6c0.4,3.4,0.9,6.8,1.3,10.2c5.4-0.5,10.8-0.9,16.2-1.2c0.1,2.2,0.3,4.5,0.4,6.7
					c-5.2,0.2-10.5,0.6-15.7,1.1c0.4,3.4,0.9,6.8,1.3,10.2c5-0.5,10-0.9,15-1.1c0.1,2.4,0.3,4.7,0.4,7.1c-6.7,0.3-13.5,0.8-20.2,1.7
					c-2.1-13.7-4.2-27.4-6.3-41.1c8-1,16.1-1.6,24.1-2c0.1,2.4,0.3,4.7,0.4,7.1C263.8,20.7,258.2,21.1,252.6,21.6z"/>
				<path fill="#FFFFFF" d="M295.2,20.4c-3-0.1-5.9-0.2-8.9-0.2c0-2.4,0.1-4.7,0.1-7.1c8.1,0.1,16.1,0.5,24.2,1.2
					c-0.3,2.4-0.5,4.7-0.8,7.1c-2.7-0.2-5.3-0.4-8-0.6c-0.9,11.4-1.7,22.8-2.6,34.3c-1.9-0.1-3.8-0.2-5.7-0.3
					C294.1,43.2,294.7,31.8,295.2,20.4z"/>
				<path fill="#FFFFFF" d="M339.5,18c-3.1,13.5-6.2,27.1-9.2,40.6c-6.7-1.2-13.3-2.1-20.1-2.8c1.8-13.7,3.5-27.4,5.3-41.2
					C323.5,15.5,331.5,16.6,339.5,18z M331.8,23.9c-3.5-0.6-7.1-1.1-10.7-1.5c-1.4,9-2.8,18-4.2,27c3.2,0.4,6.3,0.8,9.5,1.3
					C328.2,41.8,330,32.9,331.8,23.9z"/>
				<path fill="#FFFFFF" d="M380,28c-2,4.9-4,9.8-6,14.8c-1.6,1.3-3.1,2.7-4.6,4c0.2,1.9,0.4,3.8,0.6,5.7c-2,4.8-3.9,9.6-5.9,14.5
					c-6.5-2.1-13-3.9-19.6-5.4c4-13.3,8-26.7,12-40C364.4,23.4,372.2,25.5,380,28z M360.9,29.9c-1.1,3.3-2.2,6.6-3.2,9.8
					c3.3,0.9,6.7,1.8,10,2.8c1.2-3.2,2.5-6.5,3.7-9.7C367.9,31.8,364.4,30.8,360.9,29.9z M355.5,46.3c-1.1,3.3-2.2,6.6-3.2,9.8
					c3.1,0.8,6.2,1.7,9.3,2.6c1.2-3.2,2.5-6.5,3.7-9.7C362,48,358.8,47.1,355.5,46.3z"/>
				<path fill="#FFFFFF" d="M373.4,70.1c-1.8-0.6-3.6-1.3-5.4-1.9c5.6-12.9,11.1-25.8,16.7-38.7c2.2,0.7,4.3,1.5,6.4,2.2
					C385.2,44.5,379.3,57.3,373.4,70.1z"/>
				<path fill="#FFFFFF" d="M401,43.3c-2.8-1.1-5.6-2.2-8.4-3.3c1.1-2.2,2.1-4.3,3.2-6.5c7.6,2.9,15.1,6.1,22.5,9.5
					c-1.3,2.1-2.5,4.2-3.8,6.3c-2.5-1.2-4.9-2.3-7.4-3.4c-5.8,10.2-11.6,20.5-17.3,30.7c-1.8-0.8-3.5-1.5-5.3-2.2
					C390,64,395.5,53.6,401,43.3z"/>
				<path fill="#FFFFFF" d="M409.5,66.2c4.4-7,8.9-14,13.3-21c7.4,3.6,14.6,7.5,21.7,11.7c-1.5,2-3,3.9-4.5,5.9
					c-5-2.9-10-5.7-15.1-8.4c-2,2.9-3.9,5.9-5.9,8.8c4.9,2.5,9.7,5.2,14.5,8c-5.1,6.6-10.3,13.3-15.4,19.9c-5.9-3.5-12-6.8-18.1-9.8
					c1.3-2.1,2.6-4.1,3.9-6.2c4.7,2.3,9.3,4.7,13.9,7.3c2.1-2.9,4.2-5.7,6.3-8.6C419.3,71.1,414.4,68.6,409.5,66.2z"/>
				<path fill="#FFFFFF" d="M469.5,73.4c-10.2,10.5-20.4,21-30.6,31.5c-5.6-4.1-11.4-8-17.3-11.6c9.1-11.3,18.1-22.5,27.2-33.8
					C455.9,63.8,462.8,68.5,469.5,73.4z M459.1,75.1c-3-2.1-6.1-4.2-9.2-6.2c-6.2,7.3-12.3,14.5-18.5,21.8c2.8,1.8,5.5,3.6,8.2,5.5
					C446.1,89.2,452.6,82.1,459.1,75.1z"/>
				<path fill="#FFFFFF" d="M452.5,105.9c4.1,3.3,8.1,6.6,12,10.2c-2,1.6-3.9,3.2-5.9,4.9c-5.3-4.7-10.7-9.2-16.3-13.5
					c10.4-10.3,20.8-20.7,31.3-31c6.7,5.1,13.2,10.4,19.5,16.1c-2,1.6-3.9,3.2-5.9,4.9c-4.4-4-8.9-7.8-13.5-11.4
					C466.6,92.6,459.6,99.2,452.5,105.9z"/>
			</g>
		</g>
	</g>
	<g id="bitdegree_2_">
		<polygon fill="#26A9E1" points="247.5,239.7 214,220 214,180.8 247.5,161.1 281,180.8 281,220 		"/>
		<polygon fill="#F15A2C" points="318.5,239.7 285,220 285,180.8 318.5,161.1 352,180.8 352,220 		"/>
		<polygon fill="#C72128" points="283.3,177.6 249.6,158 249.6,118.7 283.3,99.1 317.1,118.7 317.1,158 		"/>
		<polygon fill="none" stroke="#FFFFFF" stroke-width="4" stroke-miterlimit="10" points="283,205.1 260,192.2 260,166.3 283,153.4 
			306,166.3 306,192.2 		"/>
		<line fill="none" x1="281.6" y1="180.8" x2="214.1" y2="220"/>
		<polygon fill="#1176BC" points="281,180.8 281,220 247.5,239.7 214,220 260.9,192.5 260,192.2 260,168.7 		"/>
		<polyline fill="none" points="214.1,220 261.4,192.5 281.6,180.8 		"/>
		<polygon fill="#EF4038" points="352.5,220 318.8,239.7 285,220 285,180.8 306,168.7 306,192.2 305.4,192.5 		"/>
		<polygon fill="#921A23" points="304.2,165.4 283.3,177.6 262.4,165.4 249.6,158 249.6,118.7 283.3,99.1 283.3,153.4 		"/>
		<path fill="#FFFFFF" d="M283.3,207.1l-2.6-1.5L259,193.2v-27.9l24.5-13.9l24.5,13.9v28l-1.8,0.7L283.3,207.1z M262,191.2l21,11.9
			l1-0.5l20-11.5v-23.8l-21-11.9l-21,11.9V191.2z"/>
	</g>
</g>
</svg>
